# xmcd
#
# Track frame offsets:
#	150
#	15960
#	40470
#	59733
#	87629
#	109770
#	131070
#	151063
#	164025
#	179938
#	198975
#	225333
#	242358
#	267090
#	281990
#	294024
#
# Disc length: 4033 seconds
#
# Revision: 2
# Processed by: cddbd v1.5.2PL0 Copyright (c) Steve Scherf et al.
# Submitted via: SynApp - FreeCDDB Version: 2.3
#
DISCID=e40fbf10
DTITLE=Lambchop - Jack's Tulips/I Hope You're Sitting Down
DYEAR=1994
DGENRE=Country
TTITLE0=Begin
TTITLE1=Betweemus
TTITLE2=Soaky In The Pooper
TTITLE3=Because You Are The Very Air He Breathes
TTITLE4=Under The Same Moon
TTITLE5=I Will Drive Slowly
TTITLE6=Oh, What A Disappointment
TTITLE7=Bellmouth
TTITLE8=Bon Soir, Bon Soir
TTITLE9=Hickey
TTITLE10=Breathe Deep
TTITLE11=So I Hear You're Moving
TTITLE12=Let's Go Bowling
TTITLE13=What Was He Wearing?
TTITLE14=Cowboy On The Moon
TTITLE15=The Pack-Up Song
EXTD=
EXTT0=
EXTT1=
EXTT2=
EXTT3=
EXTT4=
EXTT5=
EXTT6=
EXTT7=
EXTT8=
EXTT9=
EXTT10=
EXTT11=
EXTT12=
EXTT13=
EXTT14=
EXTT15=
PLAYORDER=
